<?xml version="1.0" encoding="UTF-8"?>
<svg width="65px" height="17px" viewBox="0 0 65 17" version="1.1" xmlns="http://www.w3.org/2000/svg" xmlns:xlink="http://www.w3.org/1999/xlink">
    <!-- Generator: Sketch 50.2 (55047) - http://www.bohemiancoding.com/sketch -->
    <title>Group</title>
    <desc>Created with Sketch.</desc>
    <defs></defs>
    <g id="Page-1" stroke="none" stroke-width="1" fill="none" fill-rule="evenodd">
        <g id="Group" transform="translate(-3.000000, -3.000000)">
            <g id="tighten" fill="#696969" fill-rule="nonzero">
                <path d="M18.350304,6.75033774 L12.1610942,3.15940951 C11.7456589,2.9468635 11.2543411,2.9468635 10.8389058,3.15940951 L4.66109422,6.76181036 C4.271938,7.01658629 4.02647295,7.44256577 4,7.90907177 L4,15.0909282 C4.02826302,15.5568921 4.27329443,15.982119 4.66109422,16.2381896 L10.8389058,19.8405905 C11.2543411,20.0531365 11.7456589,20.0531365 12.1610942,19.8405905 L18.3389058,16.2496623 C18.728062,15.9948863 18.973527,15.5689068 19,15.1024008 L19,7.90907177 C18.973527,7.44256577 18.728062,7.01658629 18.3389058,6.76181036 L18.350304,6.75033774 Z" id="Shape" transform="translate(11.500000, 11.500000) rotate(30.000000) translate(-11.500000, -11.500000) "></path>
            </g>
            <g id="tighten" transform="translate(5.000000, 4.000000)" fill="#FFAA30" fill-rule="nonzero">
                <path d="M10.77,7.76 C10.77,7.91463973 10.6446397,8.04 10.49,8.04 L8.75,8.04 C7.84977586,8.04 7.12,8.76977586 7.12,9.67 L7.12,11.41 C7.12,11.5646397 6.99463973,11.69 6.84,11.69 L6.32,11.69 C6.23909414,11.7016822 6.15712327,11.6774249 6.09560396,11.6235955 C6.03408465,11.5697661 5.99916095,11.4917406 6,11.41 L6,9.67 C6.01073982,9.23766042 5.84922599,8.81877465 5.55101561,8.50555999 C5.25280524,8.19234532 4.84234597,8.01047946 4.41,8 L2.67,8 C2.51536027,8 2.39,7.87463973 2.39,7.72 L2.39,7.24 C2.41003322,7.10115364 2.52972322,6.99856221 2.67,7 L4.41,7 C4.84234597,6.98952054 5.25280524,6.80765468 5.55101561,6.49444001 C5.84922599,6.18122535 6.01073982,5.76233958 6,5.33 L6,3.59 C6,3.43536027 6.12536027,3.31 6.28,3.31 L6.8,3.31 C6.95463973,3.31 7.08,3.43536027 7.08,3.59 L7.08,5.33 C7.06926018,5.76233958 7.23077401,6.18122535 7.52898439,6.49444001 C7.82719476,6.80765468 8.23765403,6.98952054 8.67,7 L10.49,7 C10.6446397,7 10.77,7.12536027 10.77,7.28 L10.77,7.76 Z M12.59,3.36 L7.16,0.23 C6.79552472,0.0447361947 6.36447528,0.0447361947 6,0.23 L0.58,3.37 C0.238580269,3.59207313 0.0232256042,3.96337428 1.42108547e-16,4.37 L1.42108547e-16,10.63 C0.0247960864,11.0361531 0.239770312,11.4067984 0.58,11.63 L6,14.77 C6.36447528,14.9552638 6.79552472,14.9552638 7.16,14.77 L12.58,11.64 C12.9214197,11.4179269 13.1367744,11.0466257 13.16,10.64 L13.16,4.37 C13.1367744,3.96337428 12.9214197,3.59207313 12.58,3.37 L12.59,3.36 Z" id="Shape" transform="translate(6.580000, 7.500000) rotate(30.000000) translate(-6.580000, -7.500000) "></path>
            </g>
            <text id="TLint" font-family="FiraCode-Light, Fira Code" font-size="14" font-weight="300" letter-spacing="1.16666663" fill="#696969">
                <tspan x="22.5833334" y="17">TLint</tspan>
            </text>
        </g>
    </g>
</svg>